<?xml version="1.0" standalone="no"?>
<!DOCTYPE svg PUBLIC "-//W3C//DTD SVG 20010904//EN"
 "http://www.w3.org/TR/2001/REC-SVG-20010904/DTD/svg10.dtd">
<svg version="1.0" xmlns="http://www.w3.org/2000/svg"
 width="192.000000pt" height="192.000000pt" viewBox="0 0 192.000000 192.000000"
 preserveAspectRatio="xMidYMid meet">
<metadata>
Created by potrace 1.11, written by Peter Selinger 2001-2013
</metadata>
<g transform="translate(0.000000,192.000000) scale(0.100000,-0.100000)"
fill="#000000" stroke="none">
<path d="M600 1740 l0 -60 60 0 60 0 0 -240 0 -240 -60 0 -60 0 0 -60 0 -60
-60 0 -60 0 0 -60 0 -60 -60 0 -60 0 0 -180 0 -180 -180 0 -180 0 0 -60 0 -60
180 0 180 0 0 -60 0 -60 60 0 60 0 0 -60 0 -60 60 0 60 0 0 -60 0 -60 360 0
360 0 0 60 0 60 60 0 60 0 0 60 0 60 60 0 60 0 0 60 0 60 180 0 180 0 0 60 0
60 -180 0 -180 0 0 180 0 180 -60 0 -60 0 0 60 0 60 -60 0 -60 0 0 60 0 60
-60 0 -60 0 0 240 0 240 60 0 60 0 0 60 0 60 -360 0 -360 0 0 -60z m480 -300
l0 -240 60 0 60 0 0 -60 0 -60 60 0 60 0 0 -60 0 -60 60 0 60 0 0 -300 0 -300
-60 0 -60 0 0 -60 0 -60 -60 0 -60 0 0 60 0 60 -180 0 -180 0 0 60 0 60 -60 0
-60 0 0 60 0 60 -60 0 -60 0 0 240 0 240 60 0 60 0 0 60 0 60 60 0 60 0 0 240
0 240 120 0 120 0 0 -240z"/>
</g>
</svg>
